<mxfile host="app.diagrams.net" modified="2023-05-04T21:22:50.223Z" agent="Mozilla/5.0 (Windows NT 10.0; Win64; x64) AppleWebKit/537.36 (KHTML, like Gecko) Chrome/111.0.0.0 Safari/537.36 OPR/97.0.0.0" version="21.2.8" etag="gZVI8RltA_32kUA6cdNc" type="github">
  <diagram name="PÃ¡gina-1" id="oBnXimT6HADlC3xrFx38">
    <mxGraphModel>
      <root>
        <mxCell id="0" />
        <mxCell id="1" parent="0" />
      </root>
    </mxGraphModel>
  </diagram>
</mxfile>
